<svg xmlns="http://www.w3.org/2000/svg" viewBox="0 0 220 48" fill="none">
  <!-- Runner icon -->
  <g transform="translate(0, 0)">
    <!-- Head -->
    <circle cx="26" cy="8" r="4" fill="#F47920"/>
    <!-- Leading arm / T crossbar -->
    <path d="M14 14 L28 12 Q30 11.5 30 13.5 L30 15 L14 17 Q12 17.5 12 15.5 Z" fill="#F47920"/>
    <!-- Torso -->
    <path d="M24 13 L26 13 Q28 13 27.5 15 L24 30 Q23.5 32 22 32 L21 32 Q19.5 32 20 30 L23 15 Q23.5 13 24 13 Z" fill="#F47920"/>
    <!-- R bowl -->
    <path d="M25 18 Q32 17 33 21 Q34 25 28 26 L24 27 L25.5 21 Z" fill="#F47920"/>
    <!-- R leg kick -->
    <path d="M27 25 L34 34 Q35 36 33 36.5 L31.5 36.5 Q30 36.5 29 35 L23 27 Z" fill="#F47920"/>
    <!-- Front leg -->
    <path d="M21 30 L13 40 Q12 42 14 42.5 L15.5 42.5 Q17 42.5 18 41 L23 33 Z" fill="#F47920"/>
    <!-- Back leg -->
    <path d="M23 28 L32 40 Q33 42 31 42.5 L29.5 42.5 Q28 42.5 27 41 L21 31 Z" fill="#E8650F"/>
    <!-- Speed lines -->
    <path d="M10 20 L16 19" stroke="#F47920" stroke-width="1.5" stroke-linecap="round" opacity="0.6"/>
    <path d="M8 24 L14 23" stroke="#F47920" stroke-width="1.5" stroke-linecap="round" opacity="0.4"/>
  </g>
  <!-- "Track" text -->
  <text x="46" y="22" font-family="system-ui, -apple-system, 'Segoe UI', sans-serif" font-weight="600" font-size="18" fill="#F47920" letter-spacing="0.5">Track</text>
  <!-- "Roster" text -->
  <text x="46" y="42" font-family="system-ui, -apple-system, 'Segoe UI', sans-serif" font-weight="800" font-size="18" fill="#1a1a2e" letter-spacing="0.5">Roster</text>
</svg>
